<svg width="60" height="60" viewBox="0 0 60 60" fill="none" xmlns="http://www.w3.org/2000/svg">
<g clip-path="url(#clip0_19117_10245)">
<path fill-rule="evenodd" clip-rule="evenodd" d="M13.9741 22.4768C13.3001 22.8043 12.5473 23.1127 11.6432 23.3681C11.4436 23.4245 11.2368 23.4784 11.021 23.5297C5.85424 24.7511 4.71651 19.4649 8.97563 17.161C10.7811 16.1845 13.5373 16.2983 15.7179 15.6946C17.3712 15.2367 18.6943 14.3671 19.021 12.2961C19.0926 11.8408 19.1382 11.3856 19.1678 10.9313C19.2985 13.5019 19.4551 18.3624 13.9741 22.4768Z" fill="url(#paint0_linear_19117_10245)"/>
<path fill-rule="evenodd" clip-rule="evenodd" d="M17.6281 14.8032C18.3317 14.2577 18.8365 13.4697 19.0218 12.2969C19.0934 11.8417 19.1382 11.3865 19.1686 10.9321C19.2975 13.4749 19.4506 18.2599 14.1442 22.3465C16.459 19.8497 17.6451 17.5536 17.6281 14.8032Z" fill="url(#paint1_linear_19117_10245)"/>
<path fill-rule="evenodd" clip-rule="evenodd" d="M18.5698 20.2233C16.8055 20.7541 15.6284 21.6732 13.9741 22.4776C19.4551 18.3624 19.2985 13.5027 19.1687 10.933V10.9322C19.4256 6.9768 18.4866 3.11267 23.5424 0C21.3501 5.9934 22.9525 8.18435 25.9816 13.1049C27.7388 15.9595 31.1046 23.7104 30.0331 27.0472C29.9892 22.6948 26.5787 20.1807 22.4691 19.7168H22.4682C21.5005 19.5318 20.1784 19.7394 18.5698 20.2233Z" fill="url(#paint2_linear_19117_10245)"/>
<path fill-rule="evenodd" clip-rule="evenodd" d="M10.6755 9.10607C11.5366 7.42941 13.6358 6.74745 15.3643 7.58318C17.0919 8.4189 17.7946 10.4561 16.9335 12.1336C16.0724 13.8111 13.9732 14.4922 12.2447 13.6565C10.5171 12.8199 9.81438 10.7827 10.6755 9.10607Z" fill="url(#paint3_linear_19117_10245)"/>
<path fill-rule="evenodd" clip-rule="evenodd" d="M28.7003 12.7695C28.071 12.3673 27.4193 11.8878 26.739 11.2562C26.5886 11.1163 26.4373 10.9695 26.2843 10.814C22.6106 7.08192 26.7596 3.48362 30.9444 5.91086C32.7186 6.94031 33.9951 9.31369 35.6242 10.8444C36.8595 12.005 38.2971 12.6826 40.3085 11.9216C40.7507 11.754 41.1795 11.5646 41.5993 11.3622V11.363C39.3713 12.7574 35.1131 15.3184 28.7003 12.7695Z" fill="url(#paint4_linear_19117_10245)"/>
<path fill-rule="evenodd" clip-rule="evenodd" d="M37.3751 12.0033C38.2138 12.3221 39.169 12.3525 40.3085 11.9216C40.7507 11.754 41.1795 11.5646 41.5993 11.3622C39.3954 12.7417 35.2026 15.2637 28.9016 12.8468C32.2871 13.5444 34.9286 13.3924 37.3751 12.0033Z" fill="url(#paint5_linear_19117_10245)"/>
<path fill-rule="evenodd" clip-rule="evenodd" d="M33.0094 15.5052C31.6533 14.2872 30.2452 13.7581 28.7002 12.7695C35.113 15.3184 39.3713 12.7574 41.5993 11.363L41.6002 11.3622C45.2586 9.60039 48.2368 6.87864 53.5423 9.57172C47.0973 10.7263 45.9443 13.1683 43.0673 18.1739C41.3988 21.0781 36.1648 27.7821 32.6523 28.5501C36.5148 26.3374 37.0528 22.2135 35.412 18.5275H35.4111C35.0916 17.6223 34.2456 16.6145 33.0094 15.5052Z" fill="url(#paint6_linear_19117_10245)"/>
<path fill-rule="evenodd" clip-rule="evenodd" d="M38.9828 3.31162C40.9101 3.19694 42.5688 4.61993 42.6861 6.49032C42.8042 8.3607 41.338 9.9696 39.4107 10.0843C37.4834 10.1989 35.8256 8.77509 35.7075 6.90557C35.5893 5.03519 37.0556 3.42629 38.9828 3.31162Z" fill="url(#paint7_linear_19117_10245)"/>
<path fill-rule="evenodd" clip-rule="evenodd" d="M44.7261 20.2928C44.7699 19.5622 44.872 18.7751 45.0958 17.8881C45.145 17.6918 45.2005 17.4911 45.2632 17.2843C46.7572 12.3308 52.043 14.0188 51.9687 18.7499C51.9374 20.7558 50.4577 23.0154 49.9063 25.1499C49.4883 26.7683 49.6019 28.3155 51.2866 29.6256C51.6572 29.914 52.0412 30.179 52.4315 30.4309H52.4306C50.0728 29.2546 45.6579 26.9568 44.7261 20.2928Z" fill="url(#paint8_linear_19117_10245)"/>
<path fill-rule="evenodd" clip-rule="evenodd" d="M49.747 27.2009C49.8822 28.0653 50.3324 28.8828 51.2867 29.6256C51.6572 29.914 52.0413 30.179 52.4315 30.4309C50.0988 29.2677 45.752 27.0046 44.7574 20.5013C45.828 23.6939 47.2836 25.8388 49.747 27.2009Z" fill="url(#paint9_linear_19117_10245)"/>
<path fill-rule="evenodd" clip-rule="evenodd" d="M44.4396 25.2819C44.8478 23.5331 44.6159 22.085 44.726 20.2928C45.6579 26.9568 50.0727 29.2546 52.4306 30.43H52.4315C55.833 32.6236 59.7502 33.7668 59.9999 39.5726C55.748 34.7337 52.9918 34.9839 47.0865 35.0699C43.6608 35.1194 35.062 34.0726 32.6191 31.5046C36.5247 33.6443 40.4741 32.0346 42.942 28.8124V28.8116C43.5919 28.0905 44.0672 26.876 44.4396 25.2819Z" fill="url(#paint10_linear_19117_10245)"/>
<path fill-rule="evenodd" clip-rule="evenodd" d="M58.3073 24.2055C59.3734 25.7684 58.9321 27.8733 57.3217 28.908C55.7123 29.9427 53.5424 29.5144 52.4772 27.9515C51.4111 26.3895 51.8524 24.2837 53.4627 23.2499C55.0722 22.2153 57.2412 22.6427 58.3073 24.2055Z" fill="url(#paint11_linear_19117_10245)"/>
<path fill-rule="evenodd" clip-rule="evenodd" d="M46.0258 37.5232C46.6999 37.1957 47.4527 36.8873 48.3568 36.6319C48.5564 36.5755 48.7632 36.5207 48.9789 36.4703C54.1457 35.2489 55.2826 40.5351 51.0235 42.839C49.217 43.8155 46.4618 43.7017 44.2812 44.3054C42.6279 44.7633 41.3048 45.6329 40.9772 47.7031C40.9056 48.1583 40.8608 48.6144 40.8313 49.0678V49.067C40.7015 46.4981 40.5439 41.6384 46.0258 37.5232Z" fill="url(#paint12_linear_19117_10245)"/>
<path fill-rule="evenodd" clip-rule="evenodd" d="M42.3718 45.1968C41.6682 45.7423 41.1633 46.5303 40.978 47.7031C40.9064 48.1583 40.8617 48.6135 40.8321 49.0678C40.7032 46.5251 40.5492 41.7401 45.8557 37.6535C43.5417 40.1503 42.3548 42.4464 42.3718 45.1968Z" fill="url(#paint13_linear_19117_10245)"/>
<path fill-rule="evenodd" clip-rule="evenodd" d="M41.4301 39.7776C43.1945 39.2468 44.3716 38.3277 46.0258 37.5232C40.5448 41.6384 40.7015 46.4981 40.8322 49.0678V49.0687C40.5753 53.0241 41.5143 56.8882 36.4585 60.0009C38.6507 54.0075 37.0493 51.8165 34.0192 46.896C32.262 44.0414 28.8963 36.2914 29.9678 32.9537C30.0116 37.3061 33.423 39.821 37.5318 40.2841H37.5326C38.4994 40.4682 39.8215 40.2606 41.4301 39.7776Z" fill="url(#paint14_linear_19117_10245)"/>
<path fill-rule="evenodd" clip-rule="evenodd" d="M49.3244 50.8939C48.4624 52.5715 46.3633 53.2525 44.6357 52.4168C42.908 51.5811 42.2053 49.5439 43.0656 47.8664C43.9276 46.1897 46.0267 45.5078 47.7543 46.3435C49.4829 47.1801 50.1856 49.2173 49.3244 50.8939Z" fill="url(#paint15_linear_19117_10245)"/>
<path fill-rule="evenodd" clip-rule="evenodd" d="M31.2997 47.2305C31.929 47.6327 32.5807 48.1122 33.261 48.7438C33.4114 48.8837 33.5635 49.0305 33.7166 49.186C37.3903 52.9181 33.2413 56.5172 29.0565 54.0891C27.2823 53.0597 26.0058 50.6863 24.3766 49.1556C23.1413 47.9941 21.7037 47.3173 19.6923 48.0784C19.2501 48.2452 18.8214 48.4354 18.4006 48.6378H18.4015C20.6287 47.2426 24.8869 44.6816 31.2997 47.2305Z" fill="url(#paint16_linear_19117_10245)"/>
<path fill-rule="evenodd" clip-rule="evenodd" d="M22.6248 47.9967C21.7861 47.6787 20.831 47.6475 19.6914 48.0784C19.2492 48.2452 18.8205 48.4354 18.4006 48.6378C20.6054 47.2583 24.7983 44.7363 31.0983 47.1532C27.7129 46.4564 25.0713 46.6076 22.6248 47.9967Z" fill="url(#paint17_linear_19117_10245)"/>
<path fill-rule="evenodd" clip-rule="evenodd" d="M26.9906 44.4948C28.3467 45.7128 29.7557 46.2419 31.2998 47.2305C24.887 44.6816 20.6287 47.2435 18.4007 48.637L18.3998 48.6378C14.7413 50.3996 11.7623 53.1214 6.45764 50.4283C12.9018 49.2737 14.0557 46.8326 16.9318 41.8261C18.6003 38.9219 23.8343 32.2187 27.3468 31.4499C23.4843 33.6626 22.9463 37.7873 24.588 41.4725H24.5889C24.9084 42.3786 25.7544 43.3855 26.9906 44.4948Z" fill="url(#paint18_linear_19117_10245)"/>
<path fill-rule="evenodd" clip-rule="evenodd" d="M21.0171 56.6884C19.0899 56.8031 17.4321 55.3792 17.3139 53.5097C17.1958 51.6393 18.662 50.0304 20.5893 49.9157C22.5165 49.8011 24.1743 51.2249 24.2925 53.0944C24.4107 54.9648 22.9444 56.5737 21.0171 56.6884Z" fill="url(#paint19_linear_19117_10245)"/>
<path fill-rule="evenodd" clip-rule="evenodd" d="M15.2739 39.7072C15.2292 40.4378 15.128 41.2249 14.9042 42.1119C14.855 42.3082 14.7995 42.5089 14.7368 42.7157C13.2428 47.6692 7.95787 45.9821 8.03127 41.2501C8.0626 39.2442 9.54228 36.9855 10.0937 34.8501C10.5117 33.2317 10.3971 31.6845 8.71338 30.3744C8.34278 30.086 7.95877 29.821 7.56848 29.5691H7.56938C9.9272 30.7454 14.343 33.0432 15.2739 39.7072Z" fill="url(#paint20_linear_19117_10245)"/>
<path fill-rule="evenodd" clip-rule="evenodd" d="M10.253 32.7991C10.1179 31.9355 9.6676 31.1172 8.71338 30.3744C8.34278 30.086 7.95877 29.821 7.56848 29.5691C9.90124 30.7323 14.2481 32.9954 15.2417 39.4987C14.172 36.3061 12.7156 34.1612 10.253 32.7991Z" fill="url(#paint21_linear_19117_10245)"/>
<path fill-rule="evenodd" clip-rule="evenodd" d="M15.5604 34.7181C15.1513 36.4669 15.3831 37.915 15.2739 39.7072C14.3421 33.0432 9.9272 30.7445 7.56937 29.5691H7.56848C4.16781 27.3756 0.249746 26.2332 0 20.4283C4.25195 25.2671 7.00812 25.0161 12.9143 24.9309C16.34 24.8814 24.9388 25.9282 27.3817 28.4962C23.4762 26.3565 19.5268 27.9663 17.0579 31.1884V31.1893C16.4081 31.9095 15.9327 33.124 15.5604 34.7181Z" fill="url(#paint22_linear_19117_10245)"/>
<path fill-rule="evenodd" clip-rule="evenodd" d="M1.69269 35.7945C0.626567 34.2316 1.06788 32.1267 2.67735 31.0929C4.28772 30.0582 6.45667 30.4865 7.52279 32.0493C8.58891 33.6122 8.1476 35.7171 6.53723 36.7509C4.92775 37.7847 2.75881 37.3564 1.69269 35.7945Z" fill="url(#paint23_linear_19117_10245)"/>
</g>
<defs>
<linearGradient id="paint0_linear_19117_10245" x1="30.1413" y1="14.04" x2="-3.88936" y2="21.7054" gradientUnits="userSpaceOnUse">
<stop stop-color="#2E368E"/>
<stop offset="0.131" stop-color="#313C91"/>
<stop offset="0.3051" stop-color="#384D9A"/>
<stop offset="0.5035" stop-color="#4568A8"/>
<stop offset="0.7199" stop-color="#568FBC"/>
<stop offset="0.9484" stop-color="#6DC0D6"/>
<stop offset="1" stop-color="#72CCDC"/>
</linearGradient>
<linearGradient id="paint1_linear_19117_10245" x1="11.0997" y1="16.6398" x2="39.8137" y2="16.6398" gradientUnits="userSpaceOnUse">
<stop stop-color="#2E368E"/>
<stop offset="0.131" stop-color="#313C91"/>
<stop offset="0.3051" stop-color="#384D9A"/>
<stop offset="0.5035" stop-color="#4568A8"/>
<stop offset="0.7199" stop-color="#568FBC"/>
<stop offset="0.9484" stop-color="#6DC0D6"/>
<stop offset="1" stop-color="#72CCDC"/>
</linearGradient>
<linearGradient id="paint2_linear_19117_10245" x1="34.3195" y1="25.9176" x2="12.5345" y2="4.09917" gradientUnits="userSpaceOnUse">
<stop stop-color="#2E368E"/>
<stop offset="0.1437" stop-color="#303B91"/>
<stop offset="0.3105" stop-color="#374998"/>
<stop offset="0.4888" stop-color="#4160A4"/>
<stop offset="0.6753" stop-color="#5081B5"/>
<stop offset="0.866" stop-color="#63AACA"/>
<stop offset="1" stop-color="#72CCDC"/>
</linearGradient>
<linearGradient id="paint3_linear_19117_10245" x1="8.48096" y1="10.6196" x2="22.521" y2="10.6196" gradientUnits="userSpaceOnUse">
<stop stop-color="#EB2027"/>
<stop offset="1" stop-color="#F9EC23"/>
</linearGradient>
<linearGradient id="paint4_linear_19117_10245" x1="36.3049" y1="15.434" x2="22.7808" y2="-9.68638" gradientUnits="userSpaceOnUse">
<stop stop-color="#EB2027"/>
<stop offset="1" stop-color="#F9EC23"/>
</linearGradient>
<linearGradient id="paint5_linear_19117_10245" x1="34.5037" y1="12.6081" x2="63.8406" y2="12.6081" gradientUnits="userSpaceOnUse">
<stop stop-color="#EB2027"/>
<stop offset="1" stop-color="#F9EC23"/>
</linearGradient>
<linearGradient id="paint6_linear_19117_10245" x1="37.0494" y1="29.612" x2="43.826" y2="-2.97549" gradientUnits="userSpaceOnUse">
<stop stop-color="#EB2027"/>
<stop offset="1" stop-color="#F9EC23"/>
</linearGradient>
<linearGradient id="paint7_linear_19117_10245" x1="34.8479" y1="6.69812" x2="48.8217" y2="6.69812" gradientUnits="userSpaceOnUse">
<stop stop-color="#019147"/>
<stop offset="1" stop-color="#F9EC23"/>
</linearGradient>
<linearGradient id="paint8_linear_19117_10245" x1="47.2339" y1="28.0359" x2="55.5638" y2="4.98451" gradientUnits="userSpaceOnUse">
<stop stop-color="#019147"/>
<stop offset="1" stop-color="#F9EC23"/>
</linearGradient>
<linearGradient id="paint9_linear_19117_10245" x1="26.4883" y1="25.4654" x2="62.3401" y2="25.4654" gradientUnits="userSpaceOnUse">
<stop stop-color="#4CB648"/>
<stop offset="0.3441" stop-color="#10A34A"/>
<stop offset="0.6989" stop-color="#0B6C37"/>
<stop offset="1" stop-color="#203D20"/>
</linearGradient>
<linearGradient id="paint10_linear_19117_10245" x1="36.0288" y1="29.9325" x2="63.4098" y2="29.9325" gradientUnits="userSpaceOnUse">
<stop stop-color="#019147"/>
<stop offset="1" stop-color="#F9EC23"/>
</linearGradient>
<linearGradient id="paint11_linear_19117_10245" x1="44.9537" y1="26.0786" x2="62.2235" y2="26.0786" gradientUnits="userSpaceOnUse">
<stop stop-color="#2E368E"/>
<stop offset="0.152" stop-color="#303C91"/>
<stop offset="0.3536" stop-color="#374D9A"/>
<stop offset="0.5136" stop-color="#3E5FA3"/>
<stop offset="0.6142" stop-color="#4670AC"/>
<stop offset="0.8131" stop-color="#5B9DC3"/>
<stop offset="1" stop-color="#72CCDC"/>
</linearGradient>
<linearGradient id="paint12_linear_19117_10245" x1="30.0646" y1="42.6789" x2="61.7286" y2="42.6789" gradientUnits="userSpaceOnUse">
<stop stop-color="#2E368E"/>
<stop offset="0.152" stop-color="#303C91"/>
<stop offset="0.3536" stop-color="#374D9A"/>
<stop offset="0.5136" stop-color="#3E5FA3"/>
<stop offset="0.6142" stop-color="#4670AC"/>
<stop offset="0.8131" stop-color="#5B9DC3"/>
<stop offset="1" stop-color="#72CCDC"/>
</linearGradient>
<linearGradient id="paint13_linear_19117_10245" x1="40.1811" y1="43.3603" x2="55.6414" y2="43.3603" gradientUnits="userSpaceOnUse">
<stop stop-color="#2E368E"/>
<stop offset="0.152" stop-color="#303C91"/>
<stop offset="0.3536" stop-color="#374D9A"/>
<stop offset="0.5136" stop-color="#3E5FA3"/>
<stop offset="0.6142" stop-color="#4670AC"/>
<stop offset="0.8131" stop-color="#5B9DC3"/>
<stop offset="1" stop-color="#72CCDC"/>
</linearGradient>
<linearGradient id="paint14_linear_19117_10245" x1="27.6396" y1="30.095" x2="47.2603" y2="58.6836" gradientUnits="userSpaceOnUse">
<stop stop-color="#2E368E"/>
<stop offset="0.152" stop-color="#303C91"/>
<stop offset="0.3536" stop-color="#374D9A"/>
<stop offset="0.5136" stop-color="#3E5FA3"/>
<stop offset="0.6142" stop-color="#4670AC"/>
<stop offset="0.8131" stop-color="#5B9DC3"/>
<stop offset="1" stop-color="#72CCDC"/>
</linearGradient>
<linearGradient id="paint15_linear_19117_10245" x1="39.8974" y1="49.3805" x2="57.1172" y2="49.3805" gradientUnits="userSpaceOnUse">
<stop stop-color="#EB2027"/>
<stop offset="0.1058" stop-color="#EC2C27"/>
<stop offset="0.299" stop-color="#EE4D26"/>
<stop offset="0.5578" stop-color="#F28325"/>
<stop offset="0.8692" stop-color="#F7CB24"/>
<stop offset="1" stop-color="#F9EC23"/>
</linearGradient>
<linearGradient id="paint16_linear_19117_10245" x1="23.7927" y1="43.7846" x2="35.729" y2="70.3168" gradientUnits="userSpaceOnUse">
<stop stop-color="#EB2027"/>
<stop offset="0.1058" stop-color="#EC2C27"/>
<stop offset="0.299" stop-color="#EE4D26"/>
<stop offset="0.5578" stop-color="#F28325"/>
<stop offset="0.8692" stop-color="#F7CB24"/>
<stop offset="1" stop-color="#F9EC23"/>
</linearGradient>
<linearGradient id="paint17_linear_19117_10245" x1="26.3168" y1="47.3921" x2="48.7107" y2="47.3921" gradientUnits="userSpaceOnUse">
<stop stop-color="#EB2027"/>
<stop offset="0.1058" stop-color="#EC2C27"/>
<stop offset="0.299" stop-color="#EE4D26"/>
<stop offset="0.5578" stop-color="#F28325"/>
<stop offset="0.8692" stop-color="#F7CB24"/>
<stop offset="1" stop-color="#F9EC23"/>
</linearGradient>
<linearGradient id="paint18_linear_19117_10245" x1="30.6361" y1="31.1272" x2="9.13332" y2="65.5013" gradientUnits="userSpaceOnUse">
<stop stop-color="#EB2027"/>
<stop offset="0.1058" stop-color="#EC2C27"/>
<stop offset="0.299" stop-color="#EE4D26"/>
<stop offset="0.5578" stop-color="#F28325"/>
<stop offset="0.8692" stop-color="#F7CB24"/>
<stop offset="1" stop-color="#F9EC23"/>
</linearGradient>
<linearGradient id="paint19_linear_19117_10245" x1="15.6284" y1="49.8339" x2="30.8363" y2="60.6551" gradientUnits="userSpaceOnUse">
<stop stop-color="#019147"/>
<stop offset="1" stop-color="#F9EC23"/>
</linearGradient>
<linearGradient id="paint20_linear_19117_10245" x1="13.2568" y1="31.8167" x2="2.87762" y2="54.9366" gradientUnits="userSpaceOnUse">
<stop stop-color="#019147"/>
<stop offset="1" stop-color="#F9EC23"/>
</linearGradient>
<linearGradient id="paint21_linear_19117_10245" x1="-3.14352" y1="22.1023" x2="18.2712" y2="40.9709" gradientUnits="userSpaceOnUse">
<stop stop-color="#4CB648"/>
<stop offset="0.3441" stop-color="#10A34A"/>
<stop offset="0.6989" stop-color="#0B6C37"/>
<stop offset="1" stop-color="#203D20"/>
</linearGradient>
<linearGradient id="paint22_linear_19117_10245" x1="25.3387" y1="32.4401" x2="-9.47202" y2="27.4868" gradientUnits="userSpaceOnUse">
<stop stop-color="#019147"/>
<stop offset="1" stop-color="#F9EC23"/>
</linearGradient>
<linearGradient id="paint23_linear_19117_10245" x1="12.7567" y1="22.205" x2="-2.262" y2="45.1324" gradientUnits="userSpaceOnUse">
<stop stop-color="#2E368E"/>
<stop offset="0.131" stop-color="#313C91"/>
<stop offset="0.3051" stop-color="#384D9A"/>
<stop offset="0.5035" stop-color="#4568A8"/>
<stop offset="0.7199" stop-color="#568FBC"/>
<stop offset="0.9484" stop-color="#6DC0D6"/>
<stop offset="1" stop-color="#72CCDC"/>
</linearGradient>
<clipPath id="clip0_19117_10245">
<rect width="60" height="60" fill="white"/>
</clipPath>
</defs>
</svg>
