<svg width="14" height="18" viewBox="0 0 14 18" fill="none" xmlns="http://www.w3.org/2000/svg">
<path d="M11.2833 4.48569C10.0502 4.48569 9.05077 3.48146 9.05077 2.24258C9.05077 1.00423 10.0502 0 11.2833 0C12.5157 0 13.5152 1.00423 13.5152 2.24258C13.5152 3.48146 12.5157 4.48569 11.2833 4.48569Z" fill="white"/>
<path d="M0.0496826 11.276V15.7473C0.0496826 16.9877 1.04809 17.9946 2.28269 18C3.5242 18.0042 4.53322 16.9947 4.53322 15.7473V13.5521C4.53322 12.3079 5.53693 11.2994 6.77526 11.2994H6.80763C6.81399 11.2994 6.82034 11.2994 6.82668 11.2994C8.06393 11.3 9.06755 12.3082 9.06755 13.5521V15.7472C9.06755 16.9946 10.076 18.0042 11.3181 17.9999C12.5527 17.9946 13.5506 16.9877 13.5506 15.7472V11.2759C13.5506 8.78799 11.5437 6.77154 9.06808 6.77154H7.15385C7.04101 6.75397 6.92538 6.74486 6.80763 6.74486H6.77526C5.53693 6.74486 4.53322 5.73637 4.53322 4.49215V2.29704C4.53322 1.04962 3.5242 0.0400586 2.28269 0.0443251C1.04809 0.0496582 0.0496826 1.05655 0.0496826 2.29704V6.76832C0.0496826 7.58948 0.26831 8.35927 0.650275 9.02215C0.26831 9.68503 0.0496826 10.4548 0.0496826 11.276Z" fill="white"/>
<path d="M0.0496826 6.87745H4.04243V12.0354H0.0496826V6.87745Z" fill="white"/>
</svg>
