<svg width="16" height="20" viewBox="0 0 16 20" fill="none" xmlns="http://www.w3.org/2000/svg">
<path d="M13.2598 4.9841C11.8898 4.9841 10.7793 3.86829 10.7793 2.49175C10.7793 1.11581 11.8898 0 13.2598 0C14.6292 0 15.7398 1.11581 15.7398 2.49175C15.7398 3.86829 14.6292 4.9841 13.2598 4.9841Z" fill="black"/>
<path d="M0.778076 12.5288V17.4969C0.778076 18.8753 1.88742 19.994 3.2592 20C4.63865 20.0047 5.75978 18.883 5.75978 17.4969V15.0579C5.75978 13.6755 6.87502 12.5549 8.25093 12.5549H8.28691C8.29397 12.5549 8.30102 12.5549 8.30807 12.5548C9.6828 12.5555 10.7979 13.6758 10.7979 15.0578V17.4969C10.7979 18.8829 11.9185 20.0046 13.2985 19.9999C14.6703 19.9939 15.779 18.8752 15.779 17.4969V12.5288C15.779 9.76443 13.5492 7.52392 10.7985 7.52392H8.67159C8.54621 7.50441 8.41774 7.49428 8.28691 7.49428H8.25093C6.87502 7.49428 5.75978 6.37374 5.75978 4.99127V2.55226C5.75978 1.16624 4.63865 0.0445095 3.2592 0.04925C1.88742 0.0551757 0.778076 1.17395 0.778076 2.55226V7.52036C0.778076 8.43275 1.021 9.28807 1.4454 10.0246C1.021 10.7611 0.778076 11.6165 0.778076 12.5288Z" fill="black"/>
<path d="M0.778076 7.64161H5.21446V13.3727H0.778076V7.64161Z" fill="black"/>
</svg>
