<svg width="21" height="20" viewBox="0 0 21 20" fill="none" xmlns="http://www.w3.org/2000/svg">
<path d="M10.9749 20C10.9087 20 10.8425 20 10.7758 19.9997C9.2081 20.0035 7.75958 19.9636 6.35089 19.8779C5.05939 19.7993 3.88049 19.353 2.94147 18.5873C2.0354 17.8485 1.41666 16.8495 1.10248 15.6184C0.829041 14.5466 0.814545 13.4945 0.800659 12.4769C0.790588 11.7468 0.780212 10.8816 0.778076 10.0018C0.780212 9.1183 0.790588 8.25313 0.800659 7.52299C0.814545 6.50553 0.829041 5.45344 1.10248 4.38151C1.41666 3.15043 2.0354 2.15143 2.94147 1.4126C3.88049 0.646917 5.05939 0.200597 6.35104 0.122014C7.75974 0.0364124 9.20856 -0.00356564 10.7796 0.000249067C12.3477 -0.00310787 13.7958 0.0364124 15.2045 0.122014C16.496 0.200597 17.6749 0.646917 18.6139 1.4126C19.5201 2.15143 20.1387 3.15043 20.4529 4.38151C20.7263 5.45329 20.7408 6.50553 20.7547 7.52299C20.7648 8.25313 20.7753 9.1183 20.7773 9.99812V10.0018C20.7753 10.8816 20.7648 11.7468 20.7547 12.4769C20.7408 13.4944 20.7265 14.5465 20.4529 15.6184C20.1387 16.8495 19.5201 17.8485 18.6139 18.5873C17.6749 19.353 16.496 19.7993 15.2045 19.8779C13.8555 19.96 12.4697 20 10.9749 20ZM10.7758 18.4372C12.318 18.4408 13.734 18.4019 15.1096 18.3183C16.0862 18.2589 16.9329 17.942 17.6265 17.3764C18.2677 16.8534 18.7093 16.132 18.9389 15.232C19.1666 14.3399 19.1797 13.3819 19.1924 12.4556C19.2023 11.7303 19.2127 10.8712 19.2148 9.99995C19.2127 9.12852 19.2023 8.2696 19.1924 7.54435C19.1797 6.61799 19.1666 5.66004 18.9389 4.76771C18.7093 3.86775 18.2677 3.14631 17.6265 2.62339C16.9329 2.0579 16.0862 1.74097 15.1096 1.68162C13.734 1.59785 12.318 1.55924 10.7794 1.5626C9.23755 1.55894 7.82138 1.59785 6.4458 1.68162C5.46924 1.74097 4.62253 2.0579 3.92886 2.62339C3.28769 3.14631 2.8461 3.86775 2.61646 4.76771C2.38879 5.66004 2.37567 6.61784 2.36301 7.54435C2.35309 8.27022 2.34271 9.12974 2.34058 10.0018C2.34271 10.87 2.35309 11.7297 2.36301 12.4556C2.37567 13.3819 2.38879 14.3399 2.61646 15.232C2.8461 16.132 3.28769 16.8534 3.92886 17.3764C4.62253 17.9419 5.46924 18.2588 6.4458 18.3181C7.82138 18.4019 9.23785 18.441 10.7758 18.4372ZM10.7386 14.8828C8.0463 14.8828 5.85574 12.6924 5.85574 9.99995C5.85574 7.30754 8.0463 5.11714 10.7386 5.11714C13.431 5.11714 15.6214 7.30754 15.6214 9.99995C15.6214 12.6924 13.431 14.8828 10.7386 14.8828ZM10.7386 6.67964C8.90781 6.67964 7.41824 8.1692 7.41824 9.99995C7.41824 11.8307 8.90781 13.3203 10.7386 13.3203C12.5695 13.3203 14.0589 11.8307 14.0589 9.99995C14.0589 8.1692 12.5695 6.67964 10.7386 6.67964ZM16.1682 3.55463C15.5211 3.55463 14.9964 4.07923 14.9964 4.72651C14.9964 5.37379 15.5211 5.89839 16.1682 5.89839C16.8155 5.89839 17.3401 5.37379 17.3401 4.72651C17.3401 4.07923 16.8155 3.55463 16.1682 3.55463Z" fill="black"/>
</svg>
