<svg width="20" height="20" viewBox="0 0 21 20" fill="none" xmlns="http://www.w3.org/2000/svg">
<path d="M10.0834 18.125C5.37508 18.125 1.54175 14.2917 1.54175 9.58335C1.54175 4.87502 5.37508 1.04169 10.0834 1.04169C14.7917 1.04169 18.6251 4.87502 18.6251 9.58335C18.6251 14.2917 14.7917 18.125 10.0834 18.125ZM10.0834 2.29169C6.05841 2.29169 2.79175 5.56669 2.79175 9.58335C2.79175 13.6 6.05841 16.875 10.0834 16.875C14.1084 16.875 17.3751 13.6 17.3751 9.58335C17.3751 5.56669 14.1084 2.29169 10.0834 2.29169Z" fill="white"/>
<path d="M18.8328 18.9595C18.6745 18.9595 18.5161 18.9012 18.3911 18.7762L16.7245 17.1095C16.4828 16.8678 16.4828 16.4678 16.7245 16.2262C16.9661 15.9845 17.3661 15.9845 17.6078 16.2262L19.2745 17.8928C19.5161 18.1345 19.5161 18.5345 19.2745 18.7762C19.1495 18.9012 18.9911 18.9595 18.8328 18.9595Z" fill="white"/>
</svg>
