<svg width="25" height="17" viewBox="0 0 25 17" fill="none" xmlns="http://www.w3.org/2000/svg">
<path d="M24.2836 2.66009C24.007 1.61992 23.1964 0.799955 22.1684 0.519867C20.2903 0 12.7778 0 12.7778 0C12.7778 0 5.26563 0 3.38755 0.500157C2.3793 0.779948 1.54888 1.62006 1.27232 2.66009C0.778076 4.55995 0.778076 8.5 0.778076 8.5C0.778076 8.5 0.778076 12.4599 1.27232 14.3399C1.54917 15.3799 2.35952 16.1999 3.3877 16.48C5.28541 17 12.7781 17 12.7781 17C12.7781 17 20.2903 17 22.1684 16.4998C23.1965 16.2199 24.007 15.3999 24.2839 14.3599C24.778 12.4599 24.778 8.52001 24.778 8.52001C24.778 8.52001 24.7978 4.55995 24.2836 2.66009ZM10.386 12.14V4.86004L16.633 8.5L10.386 12.14Z" fill="black"/>
</svg>
