<svg width="35" height="14" viewBox="0 0 35 14" fill="none" xmlns="http://www.w3.org/2000/svg">
<path d="M4.57832 10.9941C6.26548 10.9941 7.85208 10.9826 9.42751 10.9941C10.3102 11.0057 10.7906 11.3868 10.88 12.1142C10.9806 13.0265 10.4666 13.6385 9.50572 13.65C7.69565 13.6731 5.89676 13.6616 4.0867 13.6616C3.56155 13.6616 3.04758 13.6847 2.52244 13.65C1.87439 13.6154 1.23752 13.4768 0.924668 12.784C0.611817 12.0911 0.835282 11.4676 1.25986 10.9018C2.98054 8.63849 4.7124 6.36367 6.44425 4.1004C6.54481 3.96183 6.64537 3.82327 6.74593 3.69625C6.63419 3.49994 6.47777 3.59232 6.34369 3.58077C5.13698 3.56923 3.9191 3.58077 2.71239 3.56923C2.43305 3.56923 2.15372 3.53458 1.88557 3.47685C1.24869 3.32673 0.857628 2.66854 1.00288 2.02189C1.10344 1.58309 1.43864 1.22512 1.86322 1.1212C2.13138 1.05191 2.41071 1.01727 2.69004 1.01727C4.67888 1.00572 6.67889 1.00572 8.66773 1.01727C9.02527 1.00572 9.37164 1.05191 9.71801 1.14429C10.4778 1.40988 10.8018 2.13736 10.5001 2.89948C10.232 3.55768 9.8074 4.1235 9.38281 4.68931C7.91912 6.61771 6.45542 8.53457 4.99173 10.4399C4.86882 10.59 4.75709 10.7401 4.57832 10.9941Z" fill="black"/>
<path fill-rule="evenodd" clip-rule="evenodd" d="M18.54 4.13409C18.0819 4.22647 17.8026 4.56134 17.5344 4.91931C16.1378 3.66065 14.5959 3.57982 13.0763 4.51515C11.2439 5.62369 10.5623 7.42506 10.797 9.53821C11.0204 11.4897 11.8361 13.0948 13.8249 13.7645C15.0651 14.1802 16.216 14.0301 17.2328 13.1756C17.5009 12.9562 17.5791 13.0024 17.7691 13.2449C18.1378 13.7414 18.7747 13.9146 19.3333 13.6952C19.8808 13.522 20.2607 12.9908 20.2607 12.3904C20.2831 10.0809 20.2942 7.77148 20.2607 5.46203C20.2495 4.53825 19.4227 3.94934 18.54 4.13409ZM14.0312 10.5071C13.7517 10.1079 13.601 9.63205 13.5791 9.13406C13.5715 8.02453 13.9686 7.21529 14.6113 6.83791C14.9115 6.65704 15.2656 6.57105 15.6564 6.59328C16.0183 6.6092 16.3643 6.74027 16.6468 6.9676C16.7746 7.06996 16.8895 7.19235 16.9869 7.33268C17.0063 7.35989 17.0251 7.38763 17.0433 7.41588C17.2311 7.70472 17.3546 8.05018 17.4141 8.41396C17.536 9.15163 17.3936 9.96094 16.9869 10.5313C16.8752 10.6814 16.7523 10.8084 16.6182 10.9123C16.2338 11.2062 15.775 11.3231 15.3341 11.2776C15.0125 11.245 14.6948 11.1249 14.4162 10.912C14.3652 10.8725 14.3159 10.8296 14.2682 10.7835C14.2003 10.7184 14.1364 10.6473 14.0774 10.5702C14.0673 10.5573 14.0573 10.5442 14.0475 10.5309C14.042 10.523 14.0366 10.5151 14.0312 10.5071Z" fill="black"/>
<path fill-rule="evenodd" clip-rule="evenodd" d="M29.758 3.93779C27.0764 4.01862 25.1881 6.23569 25.2775 9.20334C25.2328 12.0902 27.5457 14.2726 30.4619 13.9724C33.1323 13.6952 34.8642 11.6283 34.7748 8.70681C34.6854 5.81999 32.6072 3.84541 29.758 3.93779ZM28.5624 10.5428C28.2272 10.0694 28.0596 9.50357 28.082 8.92621C28.082 7.55393 28.8495 6.63046 29.9621 6.6023C30.0231 6.6004 30.0852 6.60121 30.1482 6.60483C30.6733 6.61638 31.1649 6.89351 31.4778 7.33231C32.1147 8.2099 32.1147 9.69949 31.4666 10.5655C31.1803 10.9407 30.7816 11.1733 30.3573 11.2531C29.6989 11.3834 28.9967 11.1304 28.5624 10.5428Z" fill="black"/>
<path d="M24.2967 8.69526C24.2955 8.09865 24.2943 7.50205 24.2943 6.90544C24.2943 6.30541 24.2955 5.70409 24.2967 5.10235C24.2992 3.89759 24.3017 2.69111 24.2943 1.48977C24.2943 0.565987 23.7244 -0.0113772 22.8753 0.000170042C22.0484 0.000170042 21.5009 0.577533 21.4898 1.46667C21.4823 1.82806 21.4848 2.18432 21.4873 2.54229C21.4885 2.72191 21.4898 2.90195 21.4898 3.08329V12.2634C21.4898 12.9908 21.9144 13.6029 22.473 13.753C22.6071 13.7876 22.7523 13.7992 22.8864 13.7992C23.6797 13.7761 24.3054 13.0948 24.2943 12.2749C24.3017 11.0817 24.2992 9.88848 24.2967 8.69526Z" fill="black"/>
</svg>
